<?xml version="1.0" encoding="UTF-8" standalone="no"?>
<svg
   xmlns:dc="http://purl.org/dc/elements/1.1/"
   xmlns:cc="http://creativecommons.org/ns#"
   xmlns:rdf="http://www.w3.org/1999/02/22-rdf-syntax-ns#"
   xmlns:svg="http://www.w3.org/2000/svg"
   xmlns="http://www.w3.org/2000/svg"
   xmlns:sodipodi="http://sodipodi.sourceforge.net/DTD/sodipodi-0.dtd"
   xmlns:inkscape="http://www.inkscape.org/namespaces/inkscape"
   enable-background="new 0 0 32 32"
   height="29.714748"
   id="Layer_1"
   version="1.1"
   viewBox="0 0 29.715456 29.714748"
   width="29.715456"
   xml:space="preserve"
   inkscape:version="0.48.4 r9939"
   sodipodi:docname="add-black.svg"><metadata
     id="metadata9"><rdf:RDF><cc:Work
         rdf:about=""><dc:format>image/svg+xml</dc:format><dc:type
           rdf:resource="http://purl.org/dc/dcmitype/StillImage" /></cc:Work></rdf:RDF></metadata><defs
     id="defs7" /><sodipodi:namedview
     pagecolor="#ffffff"
     bordercolor="#666666"
     borderopacity="1"
     objecttolerance="10"
     gridtolerance="10"
     guidetolerance="10"
     inkscape:pageopacity="0"
     inkscape:pageshadow="2"
     inkscape:window-width="1366"
     inkscape:window-height="717"
     id="namedview5"
     showgrid="false"
     fit-margin-top="0"
     fit-margin-left="0"
     fit-margin-right="0"
     fit-margin-bottom="0"
     inkscape:zoom="7.375"
     inkscape:cx="14.858081"
     inkscape:cy="15.375875"
     inkscape:window-x="0"
     inkscape:window-y="25"
     inkscape:window-maximized="1"
     inkscape:current-layer="Layer_1" /><path
     d="m 17.953441,11.762721 7.07e-4,-9.2864331 C 17.953441,1.1151074 16.839041,7.071e-4 15.47786,0 L 14.239716,7.071e-4 C 12.877121,0 11.762721,1.1144003 11.764135,2.4762879 l -7.07e-4,9.2864331 -9.2871402,0 C 1.1151073,11.762014 7.0696267e-4,12.876415 7.0696267e-4,14.238302 L -1.3733017e-7,15.476446 C 7.0696267e-4,16.837627 1.1151073,17.952027 2.4762878,17.952734 l 9.2857262,0 7.07e-4,9.286433 c 7.07e-4,1.361181 1.1144,2.474874 2.475581,2.475581 l 1.238851,0 c 1.361888,0 2.476288,-1.1144 2.475581,-2.475581 l 7.07e-4,-9.286433 9.286433,-7.07e-4 c 1.361181,7.07e-4 2.475581,-1.113693 2.475581,-2.475581 l 0,-1.238851 c -7.07e-4,-1.36118 -1.1144,-2.474874 -2.475581,-2.475581 l -9.286433,7.07e-4 z"
     id="path3"
     style="fill:#000000;fill-opacity:1"
     inkscape:connector-curvature="0" /></svg>