<?xml version="1.0" encoding="UTF-8" standalone="no"?>
<!-- Created with Inkscape (http://www.inkscape.org/) -->

<svg
   xmlns:dc="http://purl.org/dc/elements/1.1/"
   xmlns:cc="http://creativecommons.org/ns#"
   xmlns:rdf="http://www.w3.org/1999/02/22-rdf-syntax-ns#"
   xmlns:svg="http://www.w3.org/2000/svg"
   xmlns="http://www.w3.org/2000/svg"
   xmlns:sodipodi="http://sodipodi.sourceforge.net/DTD/sodipodi-0.dtd"
   xmlns:inkscape="http://www.inkscape.org/namespaces/inkscape"
   id="svg2"
   version="1.1"
   inkscape:version="0.48.4 r9939"
   width="1735.3469"
   height="311.99823"
   sodipodi:docname="mezgrman.de.svg">
  <title
     id="title2991">Mezgrman Logo White</title>
  <metadata
     id="metadata8">
    <rdf:RDF>
      <cc:Work
         rdf:about="">
        <dc:format>image/svg+xml</dc:format>
        <dc:type
           rdf:resource="http://purl.org/dc/dcmitype/StillImage" />
        <dc:title>Mezgrman Logo White</dc:title>
        <dc:date>22.09.2012</dc:date>
        <dc:creator>
          <cc:Agent>
            <dc:title>Julian Metzler</dc:title>
          </cc:Agent>
        </dc:creator>
        <dc:publisher>
          <cc:Agent>
            <dc:title>Julian Metzler</dc:title>
          </cc:Agent>
        </dc:publisher>
        <dc:source>Own work</dc:source>
        <dc:language>International</dc:language>
        <dc:subject>
          <rdf:Bag>
            <rdf:li>Mezgrman</rdf:li>
          </rdf:Bag>
        </dc:subject>
        <dc:description>Mezgrman's logo.</dc:description>
        <dc:contributor>
          <cc:Agent>
            <dc:title>Julian Metzler</dc:title>
          </cc:Agent>
        </dc:contributor>
        <cc:license
           rdf:resource="http://creativecommons.org/licenses/by-nc-nd/3.0/" />
      </cc:Work>
      <cc:License
         rdf:about="http://creativecommons.org/licenses/by-nc-nd/3.0/">
        <cc:permits
           rdf:resource="http://creativecommons.org/ns#Reproduction" />
        <cc:permits
           rdf:resource="http://creativecommons.org/ns#Distribution" />
        <cc:requires
           rdf:resource="http://creativecommons.org/ns#Notice" />
        <cc:requires
           rdf:resource="http://creativecommons.org/ns#Attribution" />
        <cc:prohibits
           rdf:resource="http://creativecommons.org/ns#CommercialUse" />
      </cc:License>
    </rdf:RDF>
  </metadata>
  <defs
     id="defs6" />
  <sodipodi:namedview
     pagecolor="#ffffff"
     bordercolor="#666666"
     borderopacity="1"
     objecttolerance="10"
     gridtolerance="10"
     guidetolerance="10"
     inkscape:pageopacity="0"
     inkscape:pageshadow="2"
     inkscape:window-width="1024"
     inkscape:window-height="550"
     id="namedview4"
     showgrid="false"
     inkscape:zoom="0.36054795"
     inkscape:cx="688.85875"
     inkscape:cy="-47.587062"
     inkscape:window-x="0"
     inkscape:window-y="25"
     inkscape:window-maximized="1"
     inkscape:current-layer="svg2"
     fit-margin-top="10"
     fit-margin-left="10"
     fit-margin-right="10"
     fit-margin-bottom="10" />
  <path
     style="fill:none;stroke:#ffffff;stroke-width:10;stroke-linecap:butt;stroke-linejoin:round;stroke-miterlimit:4;stroke-opacity:1;stroke-dasharray:none"
     d="M 27.338814,161.15126 C 33.883706,139.96534 31.031795,117.07827 38.482234,96.04485 43.101581,83.350653 50.631083,71.783305 58.144653,60.625408 69.401098,50.329333 80.654199,34.912941 97.60003,35.771065 c 17.67196,4.507181 6.89511,25.900573 10.0441,38.449007 0.95275,14.585468 3.1664,32.902738 18.37253,39.586238 16.8504,5.63324 16.94929,-15.75559 14.70438,-26.42903 1.08626,-14.011245 5.30272,-28.263119 13.34065,-39.856635 8.21383,-11.049317 26.49447,-18.494582 37.81238,-7.863889 12.04124,11.5967 10.93824,29.180197 12.18442,44.392615 3.81799,14.960099 0.66664,30.492229 5.23606,45.250949 3.11245,14.69 5.74122,29.73214 3.7749,44.77062 -0.33351,14.68249 1.68477,29.98436 -3.83132,44.08689 -4.79805,10.49401 -11.05229,20.86366 -19.99118,28.35648 -11.29077,10.40326 -21.87272,-3.66399 -23.94324,-14.3526 -6.66165,-19.42735 -3.77447,-41.97594 -15.90287,-59.40355 -10.70964,-14.27268 -24.57021,-1.74381 -33.40024,6.92981 -13.73014,3.33002 -12.89034,-20.2485 -27.03357,-21.04805 -14.479191,3.85659 -15.653486,24.69411 -15.900916,37.48853 0.295744,15.99412 1.981652,32.86515 -3.641254,48.186 -6.92217,13.5943 -11.585112,28.67216 -21.979451,40.20092 -11.032091,7.31078 -39.814332,4.42261 -30.68298,-13.86864 4.348744,-14.62216 1.664424,-29.93757 1.40448,-44.83507 -0.917002,-20.57664 2.635683,-48.63475 9.171905,-64.6604 z"
     id="path3778"
     inkscape:connector-curvature="0"
     sodipodi:nodetypes="cccccccccccccccccccccccc" />
  <path
     style="fill:none;stroke:#ffffff;stroke-width:10;stroke-linecap:butt;stroke-linejoin:round;stroke-miterlimit:4;stroke-opacity:1;stroke-dasharray:none"
     d="m 405.86176,46.298077 c 9.18647,8.627568 8.28273,26.016741 -3.63206,31.754964 -11.01139,9.885829 -24.69588,15.478499 -39.09247,17.879149 -13.34856,2.24253 -28.13123,11.03845 -27.34033,26.40716 -1.72028,13.50945 11.48259,18.46416 22.38879,18.92382 10.56642,2.32459 24.03906,8.7395 23.94825,21.16737 1.63685,15.28728 -12.61943,22.27191 -25.54455,21.52438 -12.06821,0.94623 -27.5366,5.22623 -29.50926,19.26468 -2.74422,11.63485 3.30256,26.62471 16.17318,28.60979 12.6507,-1.25376 25.37852,1.28143 38.00603,-0.41862 15.5728,-0.92884 21.79459,13.99116 22.10899,27.03327 4.03364,14.13383 -10.45841,22.08921 -22.62657,20.77946 -19.3834,0.266 -38.20945,-7.24443 -57.69114,-4.69562 -12.15034,1.49955 -23.29447,-3.54042 -33.45218,-9.42295 -14.56881,-9.87401 -16.02161,-29.35489 -14.87251,-45.33049 1.20117,-16.08531 2.08218,-32.18626 0.82471,-48.30117 0.2687,-10.32195 0.32372,-20.57029 -0.0966,-30.89899 0.14899,-14.66336 -0.45603,-29.88513 6.22876,-43.41416 5.31951,-11.41261 10.90725,-22.95007 18.3332,-33.126736 8.69045,-9.192063 20.6432,-14.50761 31.95759,-19.601161 12.01243,-3.439944 22.73976,-11.009501 35.49694,-12.352258 13.32128,-0.02743 27.91857,3.50124 37.72575,12.899812 l 0.66548,1.31831 -4e-5,-1e-5 z"
     id="path3785"
     inkscape:connector-curvature="0"
     sodipodi:nodetypes="ccccccccccccccccccccccccc" />
  <path
     style="fill:none;stroke:#ffffff;stroke-width:10;stroke-linecap:butt;stroke-linejoin:round;stroke-miterlimit:4;stroke-opacity:1;stroke-dasharray:none"
     d="m 493.12077,30.879355 c 13.04441,1.190602 25.86462,-0.954149 38.83679,-1.115923 13.05528,0.240109 26.2439,-0.800202 39.20891,0.66361 12.14682,1.627061 21.70598,11.990995 33.2402,16.463752 10.83158,9.191067 8.70064,26.778582 2.30981,37.831146 -9.55832,10.49756 -18.32675,21.60903 -28.92263,31.08478 -8.40017,14.94554 17.32861,11.22256 24.86674,17.23377 13.28832,5.0476 11.35083,27.54248 -4.24646,26.56192 -13.14181,-1.11866 -27.12606,-0.16229 -40.23373,2.83969 -7.9477,9.14791 -25.4222,13.07892 -27.08133,26.15071 1.52285,14.0436 16.7844,15.55966 27.90834,15.21338 13.90965,0.74048 27.94808,1.57288 41.81898,1.34136 10.82755,-1.83134 26.9397,0.15092 28.7873,13.43288 5.03818,10.51846 0.0105,26.41749 -7.95636,36.2118 -8.88164,11.00705 -21.39309,15.2678 -37.22281,15.26467 -14.35241,-0.40317 -27.57088,0.1556 -42.27799,-1.16658 -17.09747,-0.0778 -29.25098,4.56455 -43.57979,-4.3889 -9.17283,-5.6529 -19.21444,-10.68041 -26.42513,-18.93234 -7.72148,-8.49336 -8.11618,-21.30381 -2.46385,-31.00311 5.97317,-12.92223 13.45757,-25.16573 21.15242,-37.06558 6.91976,-13.01363 -9.03979,-25.52035 -20.4449,-17.32397 -13.80952,3.82117 -23.39393,-13.64754 -14.37107,-23.93202 6.75917,-13.31108 23.07641,-13.78425 35.1436,-18.94882 12.56366,-5.09766 27.16691,-2.08988 39.19673,-8.89055 14.42327,-3.00628 26.37773,-19.32708 21.28735,-33.841012 -8.14131,-8.618108 -21.76856,-2.464504 -31.72752,-0.272205 -12.43869,3.904265 -24.48533,12.929787 -38.03161,10.534137 -9.6612,-2.053362 -14.9529,-16.305602 -16.21439,-21.857668 -5.56049,-17.588738 11.0666,-33.738874 27.4424,-32.088927 z"
     id="path3791"
     inkscape:connector-curvature="0"
     sodipodi:nodetypes="ccccccccccccccccccccccccccccc" />
  <path
     style="fill:none;stroke:#ffffff;stroke-width:10;stroke-linecap:butt;stroke-linejoin:round;stroke-miterlimit:4;stroke-opacity:1;stroke-dasharray:none"
     d="m 818.55641,55.579115 c 6.8189,-12.306411 0.54159,-29.473318 -12.48821,-34.733549 -16.09528,-8.967498 -35.83929,-6.09906 -52.72364,-1.45634 -17.49677,9.991208 -33.93154,23.383808 -42.19856,42.290333 -8.00002,16.70201 -13.95234,34.335181 -20.39124,51.649781 -1.96505,12.60744 -1.29447,25.49754 -1.98163,38.20328 0.61158,11.84897 3.97174,23.74315 5.82065,35.2961 3.78688,12.1923 1.54652,27.8462 9.86495,39.85659 6.07028,13.95918 18.19248,24.65173 31.67295,31.22982 15.75429,6.12571 33.15694,6.60088 49.84221,6.37521 17.18014,-0.79427 33.66585,-12.4412 40.14574,-28.38272 5.21309,-13.05066 16.04055,-25.67247 12.44885,-40.69925 -1.13519,-13.83378 -7.80533,-26.73325 -16.79161,-37.1121 -12.85867,-7.74839 -29.42022,-8.04197 -42.87856,-1.89103 -12.12808,10.98327 2.61881,26.35891 15.18918,27.50548 13.86379,4.61559 9.67026,24.13489 -0.72552,30.00812 -16.49297,9.29067 -37.20477,-1.28874 -45.8169,-16.57846 -4.26108,-11.87627 -7.40302,-23.2101 -11.18519,-35.30279 -2.07551,-9.27218 -1.13049,-18.72349 -3.43063,-27.94289 -3.3178,-14.028 -3.25318,-28.87548 0.0467,-42.87157 2.91974,-15.268987 18.15147,-21.701598 31.58201,-25.227355 7.49087,-4.722226 13.74017,-2.506356 20.06062,-2.582344 10.54108,-1.219746 25.61181,3.529482 33.93783,-7.634316 z"
     id="path3797"
     inkscape:connector-curvature="0"
     sodipodi:nodetypes="ccccccccccccccccccccccc" />
  <path
     style="fill:none;stroke:#ffffff;stroke-width:10;stroke-linecap:butt;stroke-linejoin:round;stroke-miterlimit:4;stroke-opacity:1;stroke-dasharray:none"
     d="m 905.47757,166.9119 c 0.10174,-19.97575 0.25949,-39.99057 0.80263,-59.93715 1.25549,-14.19749 2.60124,-28.501765 5.9883,-42.339609 3.36986,-9.278113 8.45692,-18.843223 16.59888,-24.628983 12.49157,-5.256519 26.74366,-6.758177 40.13735,-5.950791 13.92444,1.881964 29.70407,4.389838 39.46597,15.403696 8.9671,15.400254 6.8966,34.04178 6.0149,51.062767 -2.9621,14.77825 -11.1997,27.98725 -19.8897,40.04972 -8.0473,10.13943 -20.28432,17.41632 -25.0873,29.8164 -2.9845,12.99663 7.16583,24.18807 15.8228,32.44044 13.5666,9.83196 27.4117,19.71411 38.7749,32.04343 8.116,11.01914 8.8173,28.34995 -0.4521,38.84326 -10.3504,9.99203 -27.9453,4.23859 -35.1758,-6.8113 -8.5058,-11.19313 -19.1887,-22.16782 -32.59159,-27.10373 -19.33298,-1.69863 -10.80059,21.85073 -12.30537,32.32276 -2.33506,10.35646 -7.02924,24.65628 -19.78931,24.87543 -14.78103,-0.65761 -18.10043,-18.07547 -19.69162,-29.82121 0.21396,-16.51011 6.99954,-32.68924 3.87157,-49.18506 -0.76355,-11.29206 -2.67036,-22.64303 -2.48066,-33.91597 0.77727,-5.67314 -0.30316,-11.04517 -0.0139,-17.1641 z"
     id="path3803"
     inkscape:connector-curvature="0"
     sodipodi:nodetypes="ccccccccccccccccccccc" />
  <path
     style="fill:none;stroke:#ffffff;stroke-width:10;stroke-linecap:butt;stroke-linejoin:round;stroke-miterlimit:4;stroke-opacity:1;stroke-dasharray:none"
     d="m 947.64338,77.677284 c 5.25961,-10.063283 28.00807,-11.951881 30.18399,0.260458 -0.11664,13.343608 -7.22067,26.167498 -15.69702,36.126118 -9.975,11.04394 -19.00726,-7.06964 -20.45393,-15.74182 -0.95421,-7.54644 3.59641,-13.866575 5.96696,-20.644756 z"
     id="path3805"
     inkscape:connector-curvature="0" />
  <path
     style="fill:none;stroke:#ffffff;stroke-width:10;stroke-linecap:butt;stroke-linejoin:round;stroke-miterlimit:4;stroke-opacity:1;stroke-dasharray:none"
     d="m 1079.5341,145.82899 c 0.5485,-14.77521 1.5666,-30.35972 9.1299,-43.39896 5.5348,-13.85038 1.1466,-29.328574 7.0007,-43.098386 3.8371,-13.12894 11.0604,-29.524816 26.6174,-30.905014 13.9865,-3.937418 28.7662,6.117821 26.8795,21.164009 1.3481,16.351034 -2.1768,34.5593 7.1552,49.109951 11.6827,11.49988 26.7004,-4.15217 22.0881,-17.186885 1.3218,-17.680592 9.9634,-35.42874 24.5528,-45.745647 11.0687,-5.218775 24.8768,-4.871658 35.9603,0.01769 14.0725,9.727948 11.1586,29.14472 8.7021,43.642525 -1.8922,13.901307 6.8478,25.704937 8.3022,39.041627 1.1158,13.30171 -0.318,26.97509 4.068,39.82072 1.4,16.40893 2.0042,32.94182 2.0928,49.3524 1.2303,16.34175 1.8444,37.17248 -13.9918,47.01777 -16.7843,10.29745 -26.0843,-11.16139 -28.8284,-24.34415 -6.1249,-13.35381 -11.8414,-26.99007 -14.5918,-41.5281 -3.631,-10.31898 -2.3506,-23.72218 -11.1574,-31.31524 -14.3709,-7.99238 -4.5808,16.55151 -18.7759,18.69652 -17.8117,2.91505 -18.0088,-16.44227 -31.6348,-16.71838 -12.7114,1.41598 -22.67,14.43927 -20.649,27.15548 3.4325,15.75497 -2.7764,30.22278 -7.9189,44.70699 -4.0316,14.32421 -15.0656,24.68414 -21.9158,37.53506 -4.3714,11.77344 -16.0132,12.68501 -19.5263,0.2249 -9.1504,-23.2133 3.08,-48.1569 -2.1579,-71.96373 1.5807,-16.70135 6.3812,-31.30232 7.3793,-40.96607 z"
     id="path3815"
     inkscape:connector-curvature="0"
     sodipodi:nodetypes="cccccccccccccccccccccccccc" />
  <path
     style="fill:none;stroke:#ffffff;stroke-width:10;stroke-linecap:butt;stroke-linejoin:round;stroke-miterlimit:4;stroke-opacity:1;stroke-dasharray:none"
     d="m 1311.9364,195.83961 c 1.5751,-15.46821 9.1201,-29.55912 11.0357,-45.00055 2.215,-12.69828 6.6179,-25.26737 15.369,-34.98057 9.143,-14.52904 12.6256,-33.166792 26.7399,-44.190837 9.9815,-7.331536 22.2199,-10.500108 33.7661,-14.460659 10.8743,-3.116909 25.4821,-3.0264 31.7953,8.071523 4.8539,8.375606 6.7346,18.123945 9.4608,27.271433 3.28,21.65976 11.9361,42.06725 15.9511,63.54881 4.3693,11.03986 13.1843,25.06766 13.324,34.10333 0.8568,13.66853 -4.9427,27.30248 -1.096,40.66544 1.2251,11.48847 -0.1222,30.386 -15.4146,30.457 -10.3291,1.37788 -21.3576,-2.97412 -23.8282,-13.79486 -5.4303,-10.52223 -9.5519,-22.1184 -17.3956,-31.11264 -14.1436,-12.36419 -36.9927,-9.74119 -50.42,2.45996 -6.5003,5.38286 -13.6611,10.81409 -15.8106,19.4521 -3.5066,11.28256 -6.4625,24.30217 -17.6419,30.60594 -9.4654,7.86037 -26.1511,2.76012 -24.7939,-10.7481 -1.656,-11.304 -0.3714,-22.86813 3.2549,-33.61478 1.4279,-9.67066 4.8055,-18.97213 5.704,-28.73254 z"
     id="path3840"
     inkscape:connector-curvature="0"
     sodipodi:nodetypes="ccccccccccccccccccc" />
  <path
     style="fill:none;stroke:#ffffff;stroke-width:10;stroke-linecap:butt;stroke-linejoin:round;stroke-miterlimit:4;stroke-opacity:1;stroke-dasharray:none"
     d="m 1391.365,152.6932 c 11.0638,0.63053 27.3382,-4.15635 24.4505,-18.29376 0,-12.94395 2.2792,-28.70721 -8.3431,-38.39083 -9.5587,-6.7291 -17.8638,5.1079 -22.9909,11.94378 -7.9171,9.63785 -17.7842,21.78597 -13.3677,35.11028 3.2794,6.73213 12.6675,12.79097 20.2512,9.63053 l 0,0 z"
     id="path3842"
     inkscape:connector-curvature="0" />
  <path
     style="fill:none;stroke:#ffffff;stroke-width:10;stroke-linecap:butt;stroke-linejoin:round;stroke-miterlimit:4;stroke-opacity:1;stroke-dasharray:none"
     d="m 1533.0617,218.39341 c -2.4072,-15.78717 4.4382,-31.06716 5.2076,-46.73566 2.8633,-16.01227 7.9864,-31.73447 9.7295,-47.8641 -1.8846,-14.86699 1.6013,-29.63813 5.1355,-43.910234 0.2423,-15.816521 -0.2317,-33.38427 11.1461,-45.910163 9.9023,-10.015378 30.8886,-15.599795 40.4448,-2.421753 5.1052,11.941481 10.227,23.729277 16.6444,35.022026 4.7028,11.230424 3.1556,23.565504 3.2477,35.308534 2.3632,14.70703 12.1903,26.62719 16.6753,40.59893 5.4822,7.28138 8.3465,33.05818 21.1918,19.86538 7.7735,-13.81945 3.2071,-30.15057 4.8623,-45.1508 -1.2705,-14.1695 2.6817,-27.95708 3.1909,-41.914755 0.067,-12.603566 1.6032,-24.256859 3.9662,-37.549623 2.3127,-13.211053 30.6145,-24.3763 39.2521,-9.186296 9.0064,15.65527 5.108,34.466721 6.4598,51.659664 -1.2694,11.98214 0.905,23.72538 -0.1867,35.58845 -2.7398,12.90156 -8.8212,25.086 -8.552,38.56522 -1.7868,19.03134 -4.1702,38.13236 -9.6149,56.51132 -9.8947,14.01531 -14.7315,30.95456 -24.7075,44.81073 -8.4367,13.9368 -28.7133,9.72557 -30.2679,-6.66839 -7.5493,-18.45576 -16.2566,-36.57469 -19.854,-56.35412 -4.2509,-16.35955 -8.5998,-34.77369 -22.3094,-45.87948 -13.3422,-10.14119 -18.5917,8.3592 -19.4062,18.46909 -4.4569,17.83122 -3.8478,36.21874 -4.7505,54.40686 -1.3843,12.99219 -1.836,26.40652 -5.1314,38.98809 -6.0826,13.45375 -19.3337,28.47507 -35.6659,24.39849 -12.5816,-8.78856 -7.0237,-27.68067 -5.6331,-40.62982 1.3184,-7.93041 -0.6004,-15.54436 -1.0745,-24.01759 z"
     id="path3852"
     inkscape:connector-curvature="0"
     sodipodi:nodetypes="cccccccccccccccccccccccccccc" />
</svg>
